<?xml version="1.0" encoding="utf-8"?>
<COLLADA xmlns="http://www.collada.org/2005/11/COLLADASchema" version="1.4.1" xmlns:xsi="http://www.w3.org/2001/XMLSchema-instance">
  <asset>
    <contributor>
      <author>Blender User</author>
      <authoring_tool>Blender 4.2.18 LTS commit date:2026-02-16, commit time:13:37, hash:d71e3422e438</authoring_tool>
    </contributor>
    <created>2026-03-29T16:14:03</created>
    <modified>2026-03-29T16:14:03</modified>
    <unit name="meter" meter="1"/>
    <up_axis>Z_UP</up_axis>
  </asset>
  <library_effects/>
  <library_images/>
  <library_geometries>
    <geometry id="Cube_042-mesh" name="Cube.042">
      <mesh>
        <source id="Cube_042-mesh-positions">
          <float_array id="Cube_042-mesh-positions-array" count="48">-0.08018231 -0.75 0.219516 -0.08018231 -0.75 0.319516 -0.08018231 0.7500001 0.219516 -0.08018231 0.7500001 0.319516 1.919818 -0.75 0.219516 1.919818 -0.75 0.319516 1.919818 0.7500001 0.219516 1.919818 0.7500001 0.319516 0.00883305 0.05466723 0.3260245 0.00883305 0.05466723 0.8260245 0.00883305 0.7546674 0.3260245 0.00883305 0.7546674 0.8260245 0.908833 0.05466723 0.3260245 0.908833 0.05466723 0.8260245 0.908833 0.7546674 0.3260245 0.908833 0.7546674 0.8260245</float_array>
          <technique_common>
            <accessor source="#Cube_042-mesh-positions-array" count="16" stride="3">
              <param name="X" type="float"/>
              <param name="Y" type="float"/>
              <param name="Z" type="float"/>
            </accessor>
          </technique_common>
        </source>
        <source id="Cube_042-mesh-normals">
          <float_array id="Cube_042-mesh-normals-array" count="72">-1 0 0 0 1 0 1 0 0 0 -1 0 0 0 -1 0 0 1 -1 0 0 0 1 0 1 0 0 0 -1 0 0 0 -1 0 0 1 -1 0 0 0 1 0 1 0 0 0 -1 0 0 0 -1 0 0 1 -1 0 0 0 1 0 1 0 0 0 -1 0 0 0 -1 0 0 1</float_array>
          <technique_common>
            <accessor source="#Cube_042-mesh-normals-array" count="24" stride="3">
              <param name="X" type="float"/>
              <param name="Y" type="float"/>
              <param name="Z" type="float"/>
            </accessor>
          </technique_common>
        </source>
        <source id="Cube_042-mesh-map-0">
          <float_array id="Cube_042-mesh-map-0-array" count="144">0.625 0 0.375 0.25 0.375 0 0.625 0.25 0.375 0.5 0.375 0.25 0.625 0.5 0.375 0.75 0.375 0.5 0.625 0.75 0.375 1 0.375 0.75 0.375 0.5 0.125 0.75 0.125 0.5 0.875 0.5 0.625 0.75 0.625 0.5 0.625 0 0.375 0.25 0.375 0 0.625 0.25 0.375 0.5 0.375 0.25 0.625 0.5 0.375 0.75 0.375 0.5 0.625 0.75 0.375 1 0.375 0.75 0.375 0.5 0.125 0.75 0.125 0.5 0.875 0.5 0.625 0.75 0.625 0.5 0.625 0 0.625 0.25 0.375 0.25 0.625 0.25 0.625 0.5 0.375 0.5 0.625 0.5 0.625 0.75 0.375 0.75 0.625 0.75 0.625 1 0.375 1 0.375 0.5 0.375 0.75 0.125 0.75 0.875 0.5 0.875 0.75 0.625 0.75 0.625 0 0.625 0.25 0.375 0.25 0.625 0.25 0.625 0.5 0.375 0.5 0.625 0.5 0.625 0.75 0.375 0.75 0.625 0.75 0.625 1 0.375 1 0.375 0.5 0.375 0.75 0.125 0.75 0.875 0.5 0.875 0.75 0.625 0.75</float_array>
          <technique_common>
            <accessor source="#Cube_042-mesh-map-0-array" count="72" stride="2">
              <param name="S" type="float"/>
              <param name="T" type="float"/>
            </accessor>
          </technique_common>
        </source>
        <vertices id="Cube_042-mesh-vertices">
          <input semantic="POSITION" source="#Cube_042-mesh-positions"/>
        </vertices>
        <triangles count="24">
          <input semantic="VERTEX" source="#Cube_042-mesh-vertices" offset="0"/>
          <input semantic="NORMAL" source="#Cube_042-mesh-normals" offset="1"/>
          <input semantic="TEXCOORD" source="#Cube_042-mesh-map-0" offset="2" set="0"/>
          <p>1 0 0 2 0 1 0 0 2 3 1 3 6 1 4 2 1 5 7 2 6 4 2 7 6 2 8 5 3 9 0 3 10 4 3 11 6 4 12 0 4 13 2 4 14 3 5 15 5 5 16 7 5 17 9 6 18 10 6 19 8 6 20 11 7 21 14 7 22 10 7 23 15 8 24 12 8 25 14 8 26 13 9 27 8 9 28 12 9 29 14 10 30 8 10 31 10 10 32 11 11 33 13 11 34 15 11 35 1 12 36 3 12 37 2 12 38 3 13 39 7 13 40 6 13 41 7 14 42 5 14 43 4 14 44 5 15 45 1 15 46 0 15 47 6 16 48 4 16 49 0 16 50 3 17 51 1 17 52 5 17 53 9 18 54 11 18 55 10 18 56 11 19 57 15 19 58 14 19 59 15 20 60 13 20 61 12 20 62 13 21 63 9 21 64 8 21 65 14 22 66 12 22 67 8 22 68 11 23 69 9 23 70 13 23 71</p>
        </triangles>
      </mesh>
    </geometry>
  </library_geometries>
  <library_visual_scenes>
    <visual_scene id="Scene" name="Scene">
      <node id="tmp_export_Cube_042" name="tmp_export_Cube.042" type="NODE">
        <matrix sid="transform">1 0 0 0 0 1 0 0 0 0 1 0 0 0 0 1</matrix>
        <instance_geometry url="#Cube_042-mesh" name="tmp_export_Cube.042"/>
      </node>
    </visual_scene>
  </library_visual_scenes>
  <scene>
    <instance_visual_scene url="#Scene"/>
  </scene>
</COLLADA>