<?xml version="1.0" encoding="utf-8"?>
<COLLADA xmlns="http://www.collada.org/2005/11/COLLADASchema" version="1.4.1" xmlns:xsi="http://www.w3.org/2001/XMLSchema-instance">
  <asset>
    <contributor>
      <author>Blender User</author>
      <authoring_tool>Blender 4.2.18 LTS commit date:2026-02-16, commit time:13:37, hash:d71e3422e438</authoring_tool>
    </contributor>
    <created>2026-03-29T16:14:03</created>
    <modified>2026-03-29T16:14:03</modified>
    <unit name="meter" meter="1"/>
    <up_axis>Z_UP</up_axis>
  </asset>
  <library_effects/>
  <library_images/>
  <library_geometries>
    <geometry id="Cube_011-mesh" name="Cube.011">
      <mesh>
        <source id="Cube_011-mesh-positions">
          <float_array id="Cube_011-mesh-positions-array" count="72">-1 -1 -1 -1 -1 1 -1 1 -1 -1 1 1 1 -1 -1 1 -1 1 1 1 -1 1 1 1 -1.547824 1.674629 -1.015438 -1.547824 1.674629 0.9845619 -1.427824 3.40668 -1.015438 -1.427824 3.40668 0.9845619 -0.9935681 -0.9920378 -1.015438 -0.9935681 -0.9920378 0.9845619 -0.8735681 0.7400133 -1.015438 -0.8735681 0.7400133 0.9845619 1.003656 -0.9920378 -0.9969902 1.003656 -0.9920378 1.00301 0.883656 0.7400133 -0.9969902 0.883656 0.7400133 1.00301 1.557912 1.674629 -0.9969902 1.557912 1.674629 1.00301 1.437912 3.40668 -0.9969902 1.437912 3.40668 1.00301</float_array>
          <technique_common>
            <accessor source="#Cube_011-mesh-positions-array" count="24" stride="3">
              <param name="X" type="float"/>
              <param name="Y" type="float"/>
              <param name="Z" type="float"/>
            </accessor>
          </technique_common>
        </source>
        <source id="Cube_011-mesh-normals">
          <float_array id="Cube_011-mesh-normals-array" count="108">-1 0 0 0 1 0 1 0 0 0 -1 0 0 0 -1 0 0 1 -0.9976086 0.06911635 0 0.9790756 0.203497 0 0.9976086 -0.06911635 0 -0.9790756 -0.203497 0 0 0 -1 0 0 1 -0.9976086 -0.06911635 0 -0.9790756 0.203497 0 0.9976086 0.06911635 0 0.9790756 -0.203497 0 0 0 -1 0 0 1 -1 0 0 0 1 0 1 0 0 0 -1 0 0 0 -1 0 0 1 -0.9976086 0.06911635 0 0.9790756 0.203497 0 0.9976086 -0.06911635 0 -0.9790756 -0.203497 0 0 0 -1 0 0 1 -0.9976086 -0.06911635 0 -0.9790756 0.203497 0 0.9976086 0.06911635 0 0.9790756 -0.203497 0 0 0 -1 0 0 1</float_array>
          <technique_common>
            <accessor source="#Cube_011-mesh-normals-array" count="36" stride="3">
              <param name="X" type="float"/>
              <param name="Y" type="float"/>
              <param name="Z" type="float"/>
            </accessor>
          </technique_common>
        </source>
        <source id="Cube_011-mesh-map-0">
          <float_array id="Cube_011-mesh-map-0-array" count="216">0.625 0 0.375 0.25 0.375 0 0.625 0.25 0.375 0.5 0.375 0.25 0.625 0.5 0.375 0.75 0.375 0.5 0.625 0.75 0.375 1 0.375 0.75 0.375 0.5 0.125 0.75 0.125 0.5 0.875 0.5 0.625 0.75 0.625 0.5 0.625 0 0.375 0.25 0.375 0 0.625 0.25 0.375 0.5 0.375 0.25 0.625 0.5 0.375 0.75 0.375 0.5 0.625 0.75 0.375 1 0.375 0.75 0.375 0.5 0.125 0.75 0.125 0.5 0.625 0.5 0.875 0.75 0.625 0.75 0.625 0 0.375 0.25 0.375 0 0.625 0.25 0.375 0.5 0.375 0.25 0.625 0.5 0.375 0.75 0.375 0.5 0.625 0.75 0.375 1 0.375 0.75 0.125 0.5 0.375 0.75 0.125 0.75 0.875 0.5 0.625 0.75 0.625 0.5 0.625 0 0.625 0.25 0.375 0.25 0.625 0.25 0.625 0.5 0.375 0.5 0.625 0.5 0.625 0.75 0.375 0.75 0.625 0.75 0.625 1 0.375 1 0.375 0.5 0.375 0.75 0.125 0.75 0.875 0.5 0.875 0.75 0.625 0.75 0.625 0 0.625 0.25 0.375 0.25 0.625 0.25 0.625 0.5 0.375 0.5 0.625 0.5 0.625 0.75 0.375 0.75 0.625 0.75 0.625 1 0.375 1 0.375 0.5 0.375 0.75 0.125 0.75 0.625 0.5 0.875 0.5 0.875 0.75 0.625 0 0.625 0.25 0.375 0.25 0.625 0.25 0.625 0.5 0.375 0.5 0.625 0.5 0.625 0.75 0.375 0.75 0.625 0.75 0.625 1 0.375 1 0.125 0.5 0.375 0.5 0.375 0.75 0.875 0.5 0.875 0.75 0.625 0.75</float_array>
          <technique_common>
            <accessor source="#Cube_011-mesh-map-0-array" count="108" stride="2">
              <param name="S" type="float"/>
              <param name="T" type="float"/>
            </accessor>
          </technique_common>
        </source>
        <vertices id="Cube_011-mesh-vertices">
          <input semantic="POSITION" source="#Cube_011-mesh-positions"/>
        </vertices>
        <triangles count="36">
          <input semantic="VERTEX" source="#Cube_011-mesh-vertices" offset="0"/>
          <input semantic="NORMAL" source="#Cube_011-mesh-normals" offset="1"/>
          <input semantic="TEXCOORD" source="#Cube_011-mesh-map-0" offset="2" set="0"/>
          <p>1 0 0 2 0 1 0 0 2 3 1 3 6 1 4 2 1 5 7 2 6 4 2 7 6 2 8 5 3 9 0 3 10 4 3 11 6 4 12 0 4 13 2 4 14 3 5 15 5 5 16 7 5 17 9 6 18 10 6 19 8 6 20 11 7 21 14 7 22 10 7 23 15 8 24 12 8 25 14 8 26 13 9 27 8 9 28 12 9 29 14 10 30 8 10 31 10 10 32 15 11 33 9 11 34 13 11 35 17 12 36 18 12 37 16 12 38 19 13 39 22 13 40 18 13 41 23 14 42 20 14 43 22 14 44 21 15 45 16 15 46 20 15 47 18 16 48 20 16 49 16 16 50 19 17 51 21 17 52 23 17 53 1 18 54 3 18 55 2 18 56 3 19 57 7 19 58 6 19 59 7 20 60 5 20 61 4 20 62 5 21 63 1 21 64 0 21 65 6 22 66 4 22 67 0 22 68 3 23 69 1 23 70 5 23 71 9 24 72 11 24 73 10 24 74 11 25 75 15 25 76 14 25 77 15 26 78 13 26 79 12 26 80 13 27 81 9 27 82 8 27 83 14 28 84 12 28 85 8 28 86 15 29 87 11 29 88 9 29 89 17 30 90 19 30 91 18 30 92 19 31 93 23 31 94 22 31 95 23 32 96 21 32 97 20 32 98 21 33 99 17 33 100 16 33 101 18 34 102 22 34 103 20 34 104 19 35 105 17 35 106 21 35 107</p>
        </triangles>
      </mesh>
    </geometry>
  </library_geometries>
  <library_visual_scenes>
    <visual_scene id="Scene" name="Scene">
      <node id="tmp_export_Cube_011" name="tmp_export_Cube.011" type="NODE">
        <matrix sid="transform">1 0 0 0 0 1 0 0 0 0 1 0 0 0 0 1</matrix>
        <instance_geometry url="#Cube_011-mesh" name="tmp_export_Cube.011"/>
      </node>
    </visual_scene>
  </library_visual_scenes>
  <scene>
    <instance_visual_scene url="#Scene"/>
  </scene>
</COLLADA>